<svg class="Icon-c98r68-0 hHsTtn styled__StyledIcon-sc-1voz9d6-6 jxOLQK" viewBox="0 0 56 56">
    <g fill="none" fill-rule="evenodd">
        <path fill="#FBD74C" d="M1 8h54v17H1z"></path>
        <path fill="#101928" fill-rule="nonzero" d="M38.5 5a1 1 0 01.993.883L39.5 6v5H50a1 1 0 01.993.883L51 12v35a1 1 0 01-1 1H6a1 1 0 01-1-1V12a1 1 0 011-1h10.5V6a1 1 0 011.993-.117L18.5 6v5h19V6a1 1 0 011-1zM49 21.5H7V46h42V21.5zm-11.293 5.793a1 1 0 01.083 1.32l-.083.094-12 12a1 1 0 01-1.32.083l-.094-.083-6-6a1 1 0 011.32-1.497l.094.083L25 38.585l11.293-11.292a1 1 0 011.414 0zM49 13H7v6.5h42V13z"></path>
    </g>
</svg>